<?xml version="1.0" encoding="UTF-8" standalone="no"?>
<!-- Created with Inkscape (http://www.inkscape.org/) -->

<svg
   xmlns:dc="http://purl.org/dc/elements/1.1/"
   xmlns:cc="http://creativecommons.org/ns#"
   xmlns:rdf="http://www.w3.org/1999/02/22-rdf-syntax-ns#"
   xmlns:svg="http://www.w3.org/2000/svg"
   xmlns="http://www.w3.org/2000/svg"
   xmlns:sodipodi="http://sodipodi.sourceforge.net/DTD/sodipodi-0.dtd"
   xmlns:inkscape="http://www.inkscape.org/namespaces/inkscape"
   width="1024"
   height="768"
   id="svg3272"
   version="1.1"
   inkscape:version="0.48.5 r10040"
   inkscape:export-filename="/home/julio/logo.png"
   inkscape:export-xdpi="90"
   inkscape:export-ydpi="90"
   sodipodi:docname="logo2.svg">
  <sodipodi:namedview
     id="base"
     pagecolor="#ffffff"
     bordercolor="#666666"
     borderopacity="1.0"
     inkscape:pageopacity="0"
     inkscape:pageshadow="2"
     inkscape:zoom="0.70710678"
     inkscape:cx="519.17536"
     inkscape:cy="394.51749"
     inkscape:document-units="px"
     inkscape:current-layer="layer3"
     showgrid="false"
     showborder="true"
     fit-margin-top="0"
     fit-margin-left="0"
     fit-margin-right="0"
     fit-margin-bottom="0"
     inkscape:window-width="1366"
     inkscape:window-height="695"
     inkscape:window-x="0"
     inkscape:window-y="25"
     inkscape:window-maximized="1"
     inkscape:snap-page="true" />
  <defs
     id="defs3274" />
  <metadata
     id="metadata3277">
    <rdf:RDF>
      <cc:Work
         rdf:about="">
        <dc:format>image/svg+xml</dc:format>
        <dc:type
           rdf:resource="http://purl.org/dc/dcmitype/StillImage" />
        <dc:title></dc:title>
      </cc:Work>
    </rdf:RDF>
  </metadata>
  <g
     style="display:none"
     transform="translate(-201.34375,364.1749)"
     id="layer1"
     inkscape:groupmode="layer"
     inkscape:label="Layer 1">
    <path
       transform="translate(201.34375,106.71875)"
       inkscape:connector-curvature="0"
       id="path3387"
       d=""
       style="fill:#000000" />
    <path
       transform="translate(201.34375,106.71875)"
       inkscape:connector-curvature="0"
       id="path3395"
       d=""
       style="fill:#000000" />
    <path
       transform="translate(201.34375,106.71875)"
       inkscape:connector-curvature="0"
       id="path3407"
       d=""
       style="fill:#000000" />
    <path
       transform="translate(201.34375,106.71875)"
       inkscape:connector-curvature="0"
       id="path3409"
       d=""
       style="fill:#000000" />
    <path
       transform="translate(201.34375,106.71875)"
       inkscape:connector-curvature="0"
       id="path3425"
       d=""
       style="fill:#000000" />
    <path
       transform="translate(201.34375,106.71875)"
       inkscape:connector-curvature="0"
       id="path3443"
       d=""
       style="fill:#000000" />
    <path
       transform="translate(201.34375,106.71875)"
       inkscape:connector-curvature="0"
       id="path3447"
       d=""
       style="fill:#000000" />
    <path
       transform="translate(201.34375,106.71875)"
       inkscape:connector-curvature="0"
       id="path3465"
       d=""
       style="fill:#000000" />
    <g
       transform="translate(-14.5,-22.5)"
       id="g6184">
      <path
         style="fill:#000000"
         d="m 545.91344,325.21771 c -52.42411,-23.5197 -45.37942,-94.46896 16.87802,-169.9834 17.64148,-21.39804 62.61238,-62.68088 91.11557,-83.643211 20.17091,-14.834439 76.76173,-52.290365 81.28672,-53.801496 3.74203,-1.249667 23.87564,-139.545393 20.74706,-142.509433 -0.71258,-0.67505 -8.06733,2.58401 -16.34396,7.24242 -26.66474,15.0079 -97.16445,43.047456 -143.15816,56.937706 -13.54818,4.09161 -16.56937,5.89913 -21.7242,12.99729 -11.34965,15.62839 -32.9282,32.589088 -54.17583,42.5820996 -11.06689,5.20487198 -21.20877,9.120061 -22.53757,8.700449 -1.32876,-0.419613 3.53111,-4.856777 10.79974,-9.860287 21.94169,-15.1040136 44.86886,-42.4889716 64.7281,-77.3134116 l 10.03108,-17.590066 20.72015,-6.45297 c 116.78407,-36.37056 263.20806,-117.68313 350.64881,-194.72333 7.46962,-6.58115 14.08529,-11.48808 14.70147,-10.90431 1.83348,1.73702 -22.78394,41.10699 -35.42967,56.66166 -30.60288,37.64262 -70.84576,73.35518 -111.06979,98.56618 -12.11658,7.59423 -23.08915,14.14213 -24.38348,14.55088 -1.36379,0.43069 -4.83605,19.43231 -8.25738,45.187756 -3.24721,24.44451 -8.29018,55.37977 -11.20662,68.74507 -2.91642,13.365248 -5.0692,24.5363386 -4.78396,24.8246286 1.31684,1.330862 30.17478,-12.6015326 51.42423,-24.8271986 40.96472,-23.56865 90.33114,-58.34581 119.80774,-84.400996 13.6416,-12.05818 14.39553,-12.44706 13.03487,-6.72331 -0.79434,3.34132 -5.75156,14.27652 -11.01604,24.300506 -19.22259,36.60126 -51.45261,63.91284 -120.75786,102.3296796 C 812.29729,14.256356 792.98982,25.304064 784.08702,30.66104 l -16.18689,9.73999 -3.76392,20.79176 c -22.31661,123.27658 -74.25372,218.00748 -139.41916,254.29429 -27.66312,15.40393 -57.84988,19.13137 -78.80361,9.73063 z m 46.4195,-30.23464 c 49.03465,-22.7284 101.7206,-100.99654 127.70301,-189.71053 3.75128,-12.80838 7.71345,-25.941731 8.8048,-29.185221 1.09133,-3.24348 1.4217,-6.43022 0.73413,-7.08163 -3.92437,-3.717919 -64.92064,36.631571 -86.90649,57.489341 -55.59339,52.74088 -98.01479,118.17206 -97.74795,150.76729 0.19173,23.43797 19.50497,30.65638 47.4125,17.72075 l 0,0 z"
         id="path3381-5"
         inkscape:connector-curvature="0" />
    </g>
    <g
       style="display:none"
       inkscape:label="Layer"
       id="layer2"
       inkscape:groupmode="layer" />
  </g>
  <g
     inkscape:label="Layer 1 copy"
     inkscape:groupmode="layer"
     id="g3766"
     transform="translate(-201.34375,364.1749)"
     style="display:inline">
    <path
       style="fill:#000000"
       d=""
       id="path3768"
       inkscape:connector-curvature="0"
       transform="translate(201.34375,106.71875)" />
    <path
       style="fill:#000000"
       d=""
       id="path3770"
       inkscape:connector-curvature="0"
       transform="translate(201.34375,106.71875)" />
    <path
       style="fill:#000000"
       d=""
       id="path3772"
       inkscape:connector-curvature="0"
       transform="translate(201.34375,106.71875)" />
    <path
       style="fill:#000000"
       d=""
       id="path3774"
       inkscape:connector-curvature="0"
       transform="translate(201.34375,106.71875)" />
    <path
       style="fill:#000000"
       d=""
       id="path3776"
       inkscape:connector-curvature="0"
       transform="translate(201.34375,106.71875)" />
    <path
       style="fill:#000000"
       d=""
       id="path3778"
       inkscape:connector-curvature="0"
       transform="translate(201.34375,106.71875)" />
    <path
       style="fill:#000000"
       d=""
       id="path3780"
       inkscape:connector-curvature="0"
       transform="translate(201.34375,106.71875)" />
    <path
       style="fill:#000000"
       d=""
       id="path3782"
       inkscape:connector-curvature="0"
       transform="translate(201.34375,106.71875)" />
    <g
       id="g3784"
       transform="translate(-14.5,-22.5)">
      <path
         inkscape:connector-curvature="0"
         id="path3786"
         d="m 545.91344,325.21771 c -52.42411,-23.5197 -45.37942,-94.46896 16.87802,-169.9834 17.64148,-21.39804 62.61238,-62.68088 91.11557,-83.643211 20.17091,-14.834439 76.76173,-52.290365 81.28672,-53.801496 3.74203,-1.249667 23.87564,-139.545393 20.74706,-142.509433 -0.71258,-0.67505 -8.06733,2.58401 -16.34396,7.24242 -26.66474,15.0079 -97.16445,43.047456 -143.15816,56.937706 -13.54818,4.09161 -16.56937,5.89913 -21.7242,12.99729 -11.34965,15.62839 -32.9282,32.589088 -54.17583,42.5820996 -11.06689,5.20487198 -21.20877,9.120061 -22.53757,8.700449 -1.32876,-0.419613 3.53111,-4.856777 10.79974,-9.860287 21.94169,-15.1040136 44.86886,-42.4889716 64.7281,-77.3134116 l 10.03108,-17.590066 20.72015,-6.45297 c 116.78407,-36.37056 263.20806,-117.68313 350.64881,-194.72333 7.46962,-6.58115 14.08529,-11.48808 14.70147,-10.90431 1.83348,1.73702 -22.78394,41.10699 -35.42967,56.66166 -30.60288,37.64262 -70.84576,73.35518 -111.06979,98.56618 -12.11658,7.59423 -23.08915,14.14213 -24.38348,14.55088 -1.36379,0.43069 -4.83605,19.43231 -8.25738,45.187756 -3.24721,24.44451 -8.29018,55.37977 -11.20662,68.74507 -2.91642,13.365248 -5.0692,24.5363386 -4.78396,24.8246286 1.31684,1.330862 30.17478,-12.6015326 51.42423,-24.8271986 40.96472,-23.56865 90.33114,-58.34581 119.80774,-84.400996 13.6416,-12.05818 14.39553,-12.44706 13.03487,-6.72331 -0.79434,3.34132 -5.75156,14.27652 -11.01604,24.300506 -19.22259,36.60126 -51.45261,63.91284 -120.75786,102.3296796 C 812.29729,14.256356 792.98982,25.304064 784.08702,30.66104 l -16.18689,9.73999 -3.76392,20.79176 c -22.31661,123.27658 -74.25372,218.00748 -139.41916,254.29429 -27.66312,15.40393 -57.84988,19.13137 -78.80361,9.73063 z m 46.4195,-30.23464 c 49.03465,-22.7284 101.7206,-100.99654 127.70301,-189.71053 3.75128,-12.80838 7.71345,-25.941731 8.8048,-29.185221 1.09133,-3.24348 1.4217,-6.43022 0.73413,-7.08163 -3.92437,-3.717919 -64.92064,36.631571 -86.90649,57.489341 -55.59339,52.74088 -98.01479,118.17206 -97.74795,150.76729 0.19173,23.43797 19.50497,30.65638 47.4125,17.72075 l 0,0 z"
         style="fill:#000000" />
    </g>
    <g
       inkscape:groupmode="layer"
       id="g3788"
       inkscape:label="Layer"
       style="display:none" />
  </g>
  <g
     style="display:inline"
     inkscape:label="Layer#1"
     id="layer3"
     inkscape:groupmode="layer">
    <path
       sodipodi:nodetypes="casccaascccccccccccccaaaaacccccccccc"
       inkscape:connector-curvature="0"
       id="path2994"
       d="M 753.68122,28.900886 C 740.91269,49.819512 723.75119,67.035824 707,84.5 691.33318,100.83365 675.98692,113.64167 656.86396,130.28769 621.95421,160.67568 593.32703,176.82171 566.25,191.75 L 544.5,336.5 c 0,0 -7.80978,59.78679 -15,89 -7.6666,31.14872 -16.03583,62.5414 -29.87868,91.47918 -16.06608,33.58533 -38.85952,63.62187 -60.89949,93.62742 -26.28063,35.77884 -96.94062,65.01009 -97.22183,60.1434 13.03001,3.67657 40.388,0.97669 63.75,-11.5 12.95236,-8.01182 25.7617,-15.30848 40,-29.75 12.49168,-11.89999 22.91801,-25.10442 32.25,-39 11.95522,-17.6127 22.19124,-34.90665 31.625,-57.125 7.87074,-17.98914 15.40689,-36.89725 21.625,-57.875 5.06292,-16.98098 9.72892,-34.03414 13.5,-51.25 L 552,382.125 c 21.06477,-12.67617 40.23906,-23.80472 60.5,-35 23.73743,-13.37118 46.69126,-27.64878 63.25,-39.375 8.04317,-5.7872 15.86608,-12.18756 23.25063,-19.62132 8.18571,-7.54621 17.44861,-17.15019 25.83884,-30.20711 5.92429,-10.21219 20.24638,-35.66344 18.38236,-40.34682 0,0 -18.50407,15.07042 -27.91853,22.40012 -11.97431,9.3227 -24.01344,18.57154 -36.32843,27.43934 -10.68911,7.69705 -21.54593,15.16861 -32.58578,22.35356 -13.30528,8.65932 -26.77021,17.0924 -40.53554,25 -10.27203,5.90085 -20.57408,11.81921 -31.35355,16.73223 -5.17912,2.36052 -15.94975,6.09619 -15.94975,6.09619 l 8.1967,-41.56066 c 5.90543,-32.54007 13.10408,-94.41642 15.94813,-97.58731 4.59228,-2.0273 33.44968,-19.54708 48.30492,-30.69822 6.78051,-5.04965 12.92127,-9.77944 19.04992,-14.50316 L 667.375,138.4375 c 9.90799,-8.87257 18.78358,-17.90162 27.875,-26.9375 8.50025,-8.91624 16.74975,-18.250424 24.75,-28 5.19885,-7.10231 10.55954,-14.380926 15.42678,-22.146449 -0.71025,0.06232 20.31636,-31.386617 18.25444,-32.452665 z"
       style="opacity:0.3482143;fill:#adaaaa;fill-opacity:1;stroke:none" />
  </g>
</svg>
