<?xml version="1.0" encoding="UTF-8" standalone="no"?>
<!-- Created with Inkscape (http://www.inkscape.org/) -->

<svg
   xmlns:dc="http://purl.org/dc/elements/1.1/"
   xmlns:cc="http://creativecommons.org/ns#"
   xmlns:rdf="http://www.w3.org/1999/02/22-rdf-syntax-ns#"
   xmlns:svg="http://www.w3.org/2000/svg"
   xmlns="http://www.w3.org/2000/svg"
   xmlns:sodipodi="http://sodipodi.sourceforge.net/DTD/sodipodi-0.dtd"
   xmlns:inkscape="http://www.inkscape.org/namespaces/inkscape"
   id="svg3161"
   version="1.1"
   inkscape:version="0.48.5 r10040"
   width="607"
   height="1080"
   sodipodi:docname="WhatsApp Image 2017-05-02 at 22.06.02.jpeg">
  <metadata
     id="metadata3167">
    <rdf:RDF>
      <cc:Work
         rdf:about="">
        <dc:format>image/svg+xml</dc:format>
        <dc:type
           rdf:resource="http://purl.org/dc/dcmitype/StillImage" />
        <dc:title></dc:title>
      </cc:Work>
    </rdf:RDF>
  </metadata>
  <defs
     id="defs3165" />
  <sodipodi:namedview
     pagecolor="#ffffff"
     bordercolor="#666666"
     borderopacity="1"
     objecttolerance="10"
     gridtolerance="10"
     guidetolerance="10"
     inkscape:pageopacity="0"
     inkscape:pageshadow="2"
     inkscape:window-width="1366"
     inkscape:window-height="695"
     id="namedview3163"
     showgrid="false"
     showguides="false"
     inkscape:zoom="1.7481481"
     inkscape:cx="261.17812"
     inkscape:cy="578.49156"
     inkscape:window-x="0"
     inkscape:window-y="25"
     inkscape:window-maximized="1"
     inkscape:current-layer="svg3161">
    <inkscape:grid
       type="xygrid"
       id="grid3191" />
  </sodipodi:namedview>
  <path
     style="fill:none;stroke:#000000;stroke-width:1px;stroke-linecap:butt;stroke-linejoin:miter;stroke-opacity:1"
     d="M 422,357 C 373.22953,401.33679 302.84635,439.44456 240.82627,457.05085 217.80455,500.55991 197.21217,505.8152 185,510 c 25.52271,-3.15691 45.86334,-14.73837 56,-31"
     id="path3187"
     inkscape:connector-curvature="0"
     sodipodi:nodetypes="cccc" />
  <path
     style="fill:none;stroke:#000000;stroke-width:1px;stroke-linecap:butt;stroke-linejoin:miter;stroke-opacity:1"
     d="m 241,479 c 25.37222,-7.62678 56.8578,-18.17958 79,-31.22469"
     id="path3189"
     inkscape:connector-curvature="0"
     sodipodi:nodetypes="cc" />
  <path
     style="fill:none;stroke:#000000;stroke-width:1px;stroke-linecap:butt;stroke-linejoin:miter;stroke-opacity:1"
     d="m 422,357 c -12,33 -52,68 -82,83 m 0,0 c -4.95641,39.69209 -5.58678,41.43545 -10,60 21.5892,-7.32542 83.92462,-48.76342 87,-61 m 0,0.16858 C 409.18362,485.8628 361.47905,500.06739 327,522 m 0,0 C 291.31286,748.25712 86,640 311,510"
     id="path3193"
     inkscape:connector-curvature="0"
     sodipodi:nodetypes="ccccccccc" />
  <path
     style="fill:none;stroke:#000000;stroke-width:1px;stroke-linecap:butt;stroke-linejoin:miter;stroke-opacity:1"
     d="m 311,510 c 2,-12.5 4.09568,-24.84808 5.76852,-35.39713 C 318.44137,464.05383 319.69137,453.30383 320,448"
     id="path3199"
     inkscape:connector-curvature="0"
     sodipodi:nodetypes="csc" />
  <path
     style="fill:none;stroke:#000000;stroke-width:1px;stroke-linecap:butt;stroke-linejoin:miter;stroke-opacity:1"
     d="m 308,535 c 0,0 1.66499,-2.07899 -9.82049,4.99655 C 286.69403,547.07209 275.03766,555.03795 270,560 c -106.82685,105.2235 4.71892,111.18459 37.47386,-25"
     id="path3201"
     inkscape:connector-curvature="0"
     sodipodi:nodetypes="cssc" />
</svg>
