<?xml version="1.0" encoding="UTF-8" standalone="no"?>
<!-- Created with Inkscape (http://www.inkscape.org/) -->

<svg
   xmlns:dc="http://purl.org/dc/elements/1.1/"
   xmlns:cc="http://creativecommons.org/ns#"
   xmlns:rdf="http://www.w3.org/1999/02/22-rdf-syntax-ns#"
   xmlns:svg="http://www.w3.org/2000/svg"
   xmlns="http://www.w3.org/2000/svg"
   xmlns:sodipodi="http://sodipodi.sourceforge.net/DTD/sodipodi-0.dtd"
   xmlns:inkscape="http://www.inkscape.org/namespaces/inkscape"
   width="24"
   height="18"
   id="svg3519"
   version="1.1"
   inkscape:version="0.48.5 r10040"
   sodipodi:docname="project.svg"
   inkscape:export-filename="/home/julio/portfolio/images/icons/project-black.png"
   inkscape:export-xdpi="120"
   inkscape:export-ydpi="120">
  <defs
     id="defs3521" />
  <sodipodi:namedview
     id="base"
     pagecolor="#ffffff"
     bordercolor="#666666"
     borderopacity="1.0"
     inkscape:pageopacity="0.0"
     inkscape:pageshadow="2"
     inkscape:zoom="11.313708"
     inkscape:cx="20.844614"
     inkscape:cy="2.9826991"
     inkscape:document-units="px"
     inkscape:current-layer="layer1"
     showgrid="false"
     fit-margin-top="0"
     fit-margin-left="0"
     fit-margin-right="0"
     fit-margin-bottom="0"
     inkscape:window-width="1366"
     inkscape:window-height="695"
     inkscape:window-x="0"
     inkscape:window-y="25"
     inkscape:window-maximized="1" />
  <metadata
     id="metadata3524">
    <rdf:RDF>
      <cc:Work
         rdf:about="">
        <dc:format>image/svg+xml</dc:format>
        <dc:type
           rdf:resource="http://purl.org/dc/dcmitype/StillImage" />
        <dc:title></dc:title>
      </cc:Work>
    </rdf:RDF>
  </metadata>
  <g
     inkscape:label="Layer 1"
     inkscape:groupmode="layer"
     id="layer1"
     transform="translate(-178.71741,-356.14272)">
    <g
       id="g2983"
       transform="translate(0.69611,0)">
      <path
         inkscape:export-ydpi="39.926525"
         inkscape:export-xdpi="39.926525"
         inkscape:export-filename="/home/julio/portfolio/images/icons/project-black2.png"
         d="m 194.72316,367.16979 c 0,0 -0.97619,0.35154 -1.46003,1.32445 l -6.4163,0 c -0.1818,-0.38836 -0.49518,-0.78855 -1.05555,-1.04433 -1.85075,-1.01657 -3.05733,-2.68414 -3.05733,-4.57004 0,-3.09992 3.2618,-5.61372 7.28681,-5.61372 4.02543,0 7.28722,2.5138 7.28722,5.61372 0,1.72058 -1.00453,3.25901 -2.58482,4.28992 z m -1.72766,2.49417 0,1.07583 -5.91545,0 0,-1.12324 5.92112,0 -0.006,0.0474 z m -2.97474,3.356 -2.94071,-1.15786 5.91707,0 -2.97636,1.15786 z m 0,-16.87706 c -4.82183,0 -8.74401,3.02195 -8.74401,6.73697 0,2.17101 1.36893,4.22131 3.66588,5.4846 l 0.10851,0.0548 c 0.53365,0.24112 0.58588,1.01875 0.57495,1.1613 l -0.003,0.0701 0,2.21125 c 0,0.42235 0.30407,0.80695 0.79439,1.00034 l 2.93991,1.15663 c 0.20811,0.0824 0.43607,0.12383 0.66321,0.12383 0.22512,0 0.44984,-0.0402 0.65795,-0.1204 l 2.97636,-1.15818 c 0.49073,-0.1906 0.79926,-0.57769 0.79926,-1.00222 l 0,-2.19814 c 0,-1.10891 0.8782,-1.47447 0.88711,-1.47729 l 0.32311,-0.15971 c 1.97141,-1.28512 3.10146,-3.16012 3.10146,-5.14708 0,-3.71503 -3.92299,-6.73698 -8.74523,-6.73698"
         style="fill:#100f0d;fill-opacity:1;fill-rule:nonzero;stroke:none"
         id="path3083"
         inkscape:connector-curvature="0" />
    </g>
  </g>
</svg>
